# xmcd CD database file
#
# Track frame offsets:
#	150
#	11947
#	27755
#	47107
#	64332
#	89105
#	107225
#	126332
#	147442
#	173175
#	188460
#	201232
#	218375
#	232842
#	244302
#	266150
#	282825
#	302295
#	320240
#
# Disc length: 4475 seconds
#
# Revision: 0
# Processed by: cddbd v1.5.1PL0 Copyright (c) Steve Scherf et al.
# Submitted via: CDex 1.51
#
DISCID=1d117913
DTITLE=Various Artist - メタルヒーロー主題歌・挿入歌大全集? DISC1
DYEAR=2004
DGENRE=Anime
TTITLE0=石原慎一/無敵のフォーメーション！ビーファイター！
TTITLE1=石原慎一/両手で抱きしめたい
TTITLE2=遠藤正明/SAVING THE WORLD 〜夢は野望に負けない〜
TTITLE3=小西一弘/ビークラッシャー 〜恐怖の四鎧将〜
TTITLE4=石原慎一/幾千の光集まる時 〜大甲神カブテリオスのテーマ〜
TTITLE5=中里栄臣、足立直人、栗栖ゆきな/Here We Go！
TTITLE6=石原慎一/恐怖の軍団
TTITLE7=遠藤正明/Get up！Stand up！
TTITLE8=プリティキャスト/か・わ・ゆ・いガンバ！−YUIのテーマ−
TTITLE9=樫原伸彦/Last Soldier
TTITLE10=樫原伸彦/大声で歌えば
TTITLE11=草尾毅/清く正しくカブタック
TTITLE12=水木一郎/大追跡！ 〜スターピースを追いかけろ〜
TTITLE13=草尾毅/カブタック音頭
TTITLE14=串田晃/さばきの雷 〜キャプテントンボーグのテーマ〜
TTITLE15=草尾毅/ビーロボはぼくらの仲間
TTITLE16=草尾毅/スーパーチェンジ！カブタック
TTITLE17=石田よう子/DO UP!!カブタック！
TTITLE18=宮内タカユキ/ああ、スターピース
EXTD=YEAR: 2004
EXTT0=
EXTT1=
EXTT2=
EXTT3=
EXTT4=
EXTT5=
EXTT6=
EXTT7=
EXTT8=
EXTT9=
EXTT10=
EXTT11=
EXTT12=
EXTT13=
EXTT14=
EXTT15=
EXTT16=
EXTT17=
EXTT18=
PLAYORDER=
